<?xml version="1.0" standalone="no"?><!DOCTYPE svg PUBLIC "-//W3C//DTD SVG 1.1//EN" "http://www.w3.org/Graphics/SVG/1.1/DTD/svg11.dtd"><svg t="1614242931815" class="icon" viewBox="0 0 1024 1024" version="1.1" xmlns="http://www.w3.org/2000/svg" p-id="13217" xmlns:xlink="http://www.w3.org/1999/xlink" width="64" height="64"><defs><style type="text/css"></style></defs><path d="M421.380531 212.955752h525.59292a63.433628 63.433628 0 0 0 0-126.867256h-525.59292a63.433628 63.433628 0 0 0 0 126.867256zM149.522124 86.088496h-72.495575a63.433628 63.433628 0 0 0 0 126.867256h72.495575a63.433628 63.433628 0 0 0 0-126.867256zM946.973451 448.566372h-525.59292a63.433628 63.433628 0 0 0 0 126.867256h525.59292a63.433628 63.433628 0 0 0 0-126.867256zM149.522124 448.566372h-72.495575a63.433628 63.433628 0 0 0 0 126.867256h72.495575a63.433628 63.433628 0 0 0 0-126.867256zM946.973451 811.044248h-525.59292a63.433628 63.433628 0 0 0 0 126.867256h525.59292a63.433628 63.433628 0 0 0 0-126.867256zM149.522124 811.044248h-72.495575a63.433628 63.433628 0 0 0 0 126.867256h72.495575a63.433628 63.433628 0 0 0 0-126.867256z" fill='#7B81BE'></path></svg>