<?xml version="1.0" standalone="no"?><!DOCTYPE svg PUBLIC "-//W3C//DTD SVG 1.1//EN" "http://www.w3.org/Graphics/SVG/1.1/DTD/svg11.dtd"><svg t="1614243074476" class="icon" viewBox="0 0 1024 1024" version="1.1" xmlns="http://www.w3.org/2000/svg" p-id="15828" xmlns:xlink="http://www.w3.org/1999/xlink" width="64" height="64"><defs><style type="text/css"></style></defs><path d="M512 109.714286c80.676571 0 146.285714 65.609143 146.285714 146.285714s-65.609143 146.285714-146.285714 146.285714-146.285714-65.609143-146.285714-146.285714 65.609143-146.285714 146.285714-146.285714m0-73.142857a219.428571 219.428571 0 1 0 0 438.857142 219.428571 219.428571 0 0 0 0-438.857142zM828.342857 621.714286c67.584 0 122.514286 65.609143 122.514286 146.285714s-54.930286 146.285714-122.514286 146.285714h-632.685714c-67.584 0-122.514286-65.609143-122.514286-146.285714s54.930286-146.285714 122.514286-146.285714h632.685714m0-73.142857h-632.685714C87.625143 548.571429 0 646.802286 0 768s87.625143 219.428571 195.657143 219.428571h632.685714c108.032 0 195.657143-98.230857 195.657143-219.428571s-87.625143-219.428571-195.657143-219.428571zM1024 121.929143c0 20.187429-15.213714 36.571429-33.938286 36.571428h-151.625143c-18.724571 0-33.938286-16.384-33.938285-36.571428s15.213714-36.571429 33.938285-36.571429h151.625143c18.724571 0 33.938286 16.384 33.938286 36.571429zM1024 256c0 20.187429-15.213714 36.571429-33.938286 36.571429h-151.625143C819.785143 292.571429 804.571429 276.187429 804.571429 256s15.213714-36.571429 33.938285-36.571429h151.625143c18.651429 0 33.865143 16.384 33.865143 36.571429zM1024 390.070857c0 20.187429-15.213714 36.571429-33.938286 36.571429h-151.625143c-18.724571 0-33.938286-16.384-33.938285-36.571429s15.213714-36.571429 33.938285-36.571428h151.625143c18.724571 0 33.938286 16.384 33.938286 36.571428z" fill="#7B81BE" p-id="15829"></path></svg>