<?xml version="1.0" standalone="no"?><!DOCTYPE svg PUBLIC "-//W3C//DTD SVG 1.1//EN" "http://www.w3.org/Graphics/SVG/1.1/DTD/svg11.dtd"><svg t="1614515639334" class="icon" viewBox="0 0 1024 1024" version="1.1" xmlns="http://www.w3.org/2000/svg" p-id="6144" xmlns:xlink="http://www.w3.org/1999/xlink" width="64" height="64"><defs><style type="text/css"></style></defs><path d="M512.01024 0c70.656 0 137.173333 13.312 199.509333 40.021333 62.293333 26.666667 116.650667 63.146667 162.986667 109.482667a513.792 513.792 0 0 1 109.525333 162.986667C1010.69824 374.826667 1024.01024 441.344 1024.01024 512c0 70.656-13.312 137.173333-40.021333 199.509333a513.792 513.792 0 0 1-109.482667 162.986667 513.792 513.792 0 0 1-162.986667 109.525333c-62.336 26.666667-128.853333 39.978667-199.509333 39.978667-70.656 0-137.173333-13.312-199.509333-40.021333a513.792 513.792 0 0 1-162.986667-109.482667 513.792 513.792 0 0 1-109.525333-162.986667A501.845333 501.845333 0 0 1 0.01024 512c0-70.656 13.312-137.173333 40.021333-199.509333a513.792 513.792 0 0 1 109.482667-162.986667A513.792 513.792 0 0 1 312.500907 39.978667C374.836907 13.354667 441.35424 0 512.01024 0zM283.444907 688.213333h457.130666l-31.061333 34.261334H311.30624l-27.861333-34.218667zM512.01024 298.666667l182.4 181.589333h-115.498667V576a21.333333 21.333333 0 0 1-21.333333 21.333333h-91.136a21.333333 21.333333 0 0 1-21.333333-21.333333v-95.744H330.420907L512.01024 298.666667z m283.52 437.12c4.266667-5.290667 7.850667-11.648 10.752-19.114667a60.586667 60.586667 0 0 0 4.394667-22.272V280.234667c0-18.048-6.656-33.706667-19.925334-46.976A64.256 64.256 0 0 0 743.775573 213.333333H280.244907c-18.048 0-33.706667 6.656-46.976 19.925334A64.256 64.256 0 0 0 213.343573 280.234667v414.165333c0 7.424 1.450667 14.848 4.394667 22.272 2.901333 7.466667 6.741333 13.824 11.52 19.114667l44.629333 56.576c4.778667 5.290667 10.624 9.685333 17.493334 13.141333 6.912 3.413333 14.08 5.162667 21.504 5.162667h398.250666c14.848 0 27.861333-6.101333 38.997334-18.346667l45.397333-56.533333z" fill="#6B92E5" p-id="6145"></path></svg>