<?xml version="1.0" standalone="no"?><!DOCTYPE svg PUBLIC "-//W3C//DTD SVG 1.1//EN" "http://www.w3.org/Graphics/SVG/1.1/DTD/svg11.dtd"><svg t="1614321619396" class="icon" viewBox="0 0 1024 1024" version="1.1" xmlns="http://www.w3.org/2000/svg" p-id="7900" xmlns:xlink="http://www.w3.org/1999/xlink" width="64" height="64"><defs><style type="text/css"></style></defs><path d="M512.005784 0a512 512 0 1 0 512 512.005784A513.509591 513.509591 0 0 0 512.005784 0z m12.793927 153.59653c195.199928 0 195.199928 147.20535 195.199928 230.400578s-76.804049 236.803326-195.199928 240.001808c-115.197397 0-195.199928-153.59653-195.199928-240.001808 0-83.195228 0-230.400578 195.199928-230.400578z m-12.793927 841.599783a487.962224 487.962224 0 0 1-371.203181-172.798988c12.799711-32.002169 28.797903-67.20282 51.198843-86.399494 48.006145-38.404916 192.024581-102.374551 192.024581-102.374551l89.597976 172.804772 15.998193-41.603398-25.599422-51.198843 51.198843-51.198844 51.198843 51.198844-22.400939 54.397324 12.805494 41.603399 92.796458-169.600507s144.018436 63.998554 192.024581 102.374551c22.395156 15.998193 38.399132 44.80188 48.006145 70.395518a474.855968 474.855968 0 0 1-377.600144 182.400217z m0 0" fill="#409eff" p-id="7901"></path></svg>