<?xml version="1.0" standalone="no"?><!DOCTYPE svg PUBLIC "-//W3C//DTD SVG 1.1//EN" "http://www.w3.org/Graphics/SVG/1.1/DTD/svg11.dtd"><svg t="1614326876100" class="icon" viewBox="0 0 1024 1024" version="1.1" xmlns="http://www.w3.org/2000/svg" p-id="8756" xmlns:xlink="http://www.w3.org/1999/xlink" width="64" height="64"><defs><style type="text/css"></style></defs><path d="M512 1024C229.236364 1024 0 794.763636 0 512S229.236364 0 512 0s512 229.236364 512 512-229.236364 512-512 512z m-26.298182-616.192v60.043636H348.858182a55.04 55.04 0 0 0-55.249455 54.807273v46.987636H230.493091a20.945455 20.945455 0 0 0-21.038546 20.875637v156.602182a20.945455 20.945455 0 0 0 21.038546 20.875636H451.490909a20.945455 20.945455 0 0 0 21.038546-20.875636v-156.625455a20.945455 20.945455 0 0 0-21.038546-20.852364h-110.498909v-47.010909c0-4.305455 3.537455-7.819636 7.912727-7.819636h320.930909c4.375273 0 7.912727 3.514182 7.912728 7.842909v46.987636H572.509091a20.945455 20.945455 0 0 0-21.038546 20.875637v156.602182A20.945455 20.945455 0 0 0 572.509091 768h220.997818a20.945455 20.945455 0 0 0 21.038546-20.875636v-156.625455a20.945455 20.945455 0 0 0-21.038546-20.852364h-68.421818v-47.010909c0-30.254545-24.715636-54.784-55.226182-54.784H538.298182v-60.043636h81.570909a20.945455 20.945455 0 0 0 21.038545-20.875636V230.330182A20.945455 20.945455 0 0 0 619.869091 209.454545h-220.997818a20.945455 20.945455 0 0 0-21.038546 20.875637v156.625454a20.945455 20.945455 0 0 0 21.038546 20.852364h86.807272z" p-id="8757" fill="#409eff"></path></svg>