<?xml version="1.0" standalone="no"?><!DOCTYPE svg PUBLIC "-//W3C//DTD SVG 1.1//EN" "http://www.w3.org/Graphics/SVG/1.1/DTD/svg11.dtd"><svg t="1615448964655" class="icon" viewBox="0 0 1228 1024" version="1.1" xmlns="http://www.w3.org/2000/svg" p-id="2745" xmlns:xlink="http://www.w3.org/1999/xlink" width="76.75" height="64"><defs><style type="text/css"></style></defs><path d="M1024 0H204.8C91.648 0 0 76.288 0 170.496v683.008C0 947.712 91.648 1024 204.8 1024h819.2c113.152 0 204.8-76.288 204.8-170.496V170.496C1228.8 76.288 1137.152 0 1024 0z m102.4 850.944a108.544 108.544 0 0 1-117.248 97.792H228.352a109.056 109.056 0 0 1-117.248-97.792v-665.6a109.056 109.056 0 0 1 117.248-99.328h782.336A109.056 109.056 0 0 1 1126.4 183.808z" fill="#6B92E5" p-id="2746"></path><path d="M471.04 632.832H229.888a31.232 31.232 0 0 0-31.744 31.232 31.744 31.744 0 0 0 31.744 31.744H471.04a31.232 31.232 0 0 0 31.232-30.208 35.84 35.84 0 0 0-31.232-32.768zM563.2 468.48H229.888a31.232 31.232 0 0 0-31.744 31.232 31.744 31.744 0 0 0 31.744 31.744H563.2a31.744 31.744 0 0 0 31.744-31.744 36.864 36.864 0 0 0-31.744-31.232z m367.104 59.392a172.032 172.032 0 0 0 17.408-230.912 144.384 144.384 0 0 0-204.8-29.696l-10.752 8.704A172.032 172.032 0 0 0 716.8 506.88c6.656 6.656 10.24 13.824 17.408 20.992a233.472 233.472 0 0 0-112.128 204.8 31.744 31.744 0 0 0 31.744 31.232 31.232 31.232 0 0 0 31.232-31.232 157.696 157.696 0 0 1 146.944-164.352 157.184 157.184 0 0 1 150.528 163.84 31.232 31.232 0 0 0 31.232 31.232 31.232 31.232 0 0 0 31.744-31.232 223.232 223.232 0 0 0-116.736-204.288z m-95.744-28.16a96.768 96.768 0 0 1-91.136-97.792 94.72 94.72 0 0 1 91.136-97.792 96.768 96.768 0 0 1 91.136 97.792 94.72 94.72 0 0 1-91.136 97.792z m-244.736-195.584h-363.52a31.232 31.232 0 0 0-31.744 31.232 31.744 31.744 0 0 0 31.744 31.744h363.52a32.256 32.256 0 0 0 31.744-31.744 31.232 31.232 0 0 0-31.744-31.232z" fill="#6B92E5" p-id="2747"></path></svg>