<?xml version="1.0" standalone="no"?><!DOCTYPE svg PUBLIC "-//W3C//DTD SVG 1.1//EN" "http://www.w3.org/Graphics/SVG/1.1/DTD/svg11.dtd"><svg t="1614326805456" class="icon" viewBox="0 0 1024 1024" version="1.1" xmlns="http://www.w3.org/2000/svg" p-id="4136" xmlns:xlink="http://www.w3.org/1999/xlink" width="64" height="64"><defs><style type="text/css"></style></defs><path d="M512 10.629758C235.626298 10.629758 8.858131 233.854671 8.858131 513.771626s223.224913 503.141869 503.141869 503.141869 503.141869-223.224913 503.141869-503.141869S788.373702 10.629758 512 10.629758z m265.743945 659.044982c0 42.519031-38.975779 81.49481-88.581315 81.49481H331.294118c-49.605536 0-88.581315-35.432526-88.581315-81.49481V354.32526c0-42.519031 38.975779-81.49481 88.581315-81.49481h357.868512c49.605536 0 88.581315 35.432526 88.581315 81.49481v315.34948z" fill="#409eff" p-id="4137"></path><path d="M689.16263 311.806228H331.294118c-28.346021 0-53.148789 21.259516-53.148789 46.062284v311.806228c0 24.802768 24.802768 46.062284 53.148789 46.062284h357.868512c28.346021 0 53.148789-21.259516 53.148789-46.062284V354.32526c0-24.802768-24.802768-42.519031-53.148789-42.519032z m-194.878893 297.633218H327.750865c0-38.975779 17.716263-70.865052 46.062284-85.038062-14.17301-10.629758-21.259516-28.346021-21.259516-46.062284 0-31.889273 28.346021-60.235294 60.235294-60.235294s60.235294 28.346021 60.235294 60.235294c0 17.716263-10.629758 35.432526-21.259515 46.062284 21.259516 14.17301 42.519031 46.062284 42.519031 85.038062z m198.422145 0h-162.989619c-10.629758 0-17.716263-7.086505-17.716263-17.716263s7.086505-17.716263 17.716263-17.716263h162.989619c10.629758 0 17.716263 7.086505 17.716263 17.716263s-7.086505 17.716263-17.716263 17.716263z m0-74.408304h-162.989619c-10.629758 0-17.716263-7.086505-17.716263-17.716263s7.086505-17.716263 17.716263-17.716263h162.989619c10.629758 0 17.716263 7.086505 17.716263 17.716263s-7.086505 17.716263-17.716263 17.716263z m0-74.408305h-162.989619c-10.629758 0-17.716263-7.086505-17.716263-17.716263s7.086505-17.716263 17.716263-17.716263h162.989619c10.629758 0 17.716263 7.086505 17.716263 17.716263s-7.086505 17.716263-17.716263 17.716263z" fill="#409eff" p-id="4138"></path></svg>